 <svg
                    xmlns="http://www.w3.org/2000/svg"
                    width="13"
                    height="18"
                    viewBox="0 0 13 18"
                    fill="none"
                  >
                    <path
                      d="M6.49997 8.66667C7.38223 8.66667 8.24467 8.41252 8.97825 7.93637C9.71182 7.46022 10.2836 6.78344 10.6212 5.99163C10.9588 5.19982 11.0472 4.32853 10.875 3.48794C10.7029 2.64736 10.2781 1.87523 9.65422 1.26921C9.03037 0.663178 8.23553 0.250468 7.37022 0.0832657C6.50492 -0.0839369 5.608 0.00187757 4.7929 0.329857C3.9778 0.657837 3.28112 1.21325 2.79096 1.92586C2.3008 2.63848 2.03918 3.47628 2.03918 4.33333C2.04037 5.48225 2.51072 6.58379 3.34702 7.3962C4.18333 8.20861 5.31726 8.66552 6.49997 8.66667ZM6.49997 1.44445C7.08814 1.44445 7.66311 1.61388 8.15215 1.93131C8.6412 2.24875 9.02237 2.69993 9.24745 3.2278C9.47254 3.75568 9.53143 4.33654 9.41668 4.89693C9.30193 5.45732 9.0187 5.97207 8.6028 6.37609C8.1869 6.78011 7.65701 7.05525 7.08014 7.16671C6.50327 7.27818 5.90532 7.22097 5.36192 7.00232C4.81852 6.78367 4.35407 6.41339 4.0273 5.93831C3.70053 5.46324 3.52611 4.9047 3.52611 4.33333C3.52611 3.56715 3.83943 2.83235 4.39713 2.29058C4.95484 1.74881 5.71125 1.44445 6.49997 1.44445Z"
                      fill="white"
                    />
                    <path
                      d="M6.5 10.196C4.77668 10.1979 3.12449 10.8753 1.90592 12.0795C0.687345 13.2838 0.00191162 14.9165 0 16.6196C0 16.8089 0.076091 16.9904 0.211534 17.1243C0.346977 17.2581 0.530677 17.3333 0.722222 17.3333C0.913767 17.3333 1.09747 17.2581 1.23291 17.1243C1.36835 16.9904 1.44444 16.8089 1.44444 16.6196C1.44444 15.2945 1.97708 14.0238 2.92518 13.0868C3.87328 12.1499 5.15918 11.6235 6.5 11.6235C7.84082 11.6235 9.12672 12.1499 10.0748 13.0868C11.0229 14.0238 11.5556 15.2945 11.5556 16.6196C11.5556 16.8089 11.6316 16.9904 11.7671 17.1243C11.9025 17.2581 12.0862 17.3333 12.2778 17.3333C12.4693 17.3333 12.653 17.2581 12.7885 17.1243C12.9239 16.9904 13 16.8089 13 16.6196C12.9981 14.9165 12.3127 13.2838 11.0941 12.0795C9.87551 10.8753 8.22332 10.1979 6.5 10.196Z"
                      fill="white"
                    />
                  </svg>