<svg xmlns="http://www.w3.org/2000/svg" width="21" height="21" viewBox="0 0 21 21" fill="none"><path fill-rule="evenodd" clip-rule="evenodd" d="M8.7956 10.5426V15.6791C8.7956 15.752 8.85236 15.8136 8.92534 15.8136H10.7661C10.8364 15.8136 10.8958 15.7548 10.8958 15.6791V10.4585H12.2311C12.2987 10.4585 12.3528 10.4053 12.3609 10.3352L12.4879 8.76316C12.4933 8.6847 12.4339 8.61744 12.3582 8.61744H10.8958V7.50215C10.8958 7.24154 11.1013 7.02857 11.3527 7.02857H12.3798C12.4501 7.02857 12.5095 6.96973 12.5095 6.89406V5.32201C12.5095 5.24915 12.4528 5.1875 12.3798 5.1875H10.6418C9.62272 5.1875 8.7956 6.04499 8.7956 7.10143V8.61744H7.87657C7.80629 8.61744 7.74683 8.67629 7.74683 8.75195V10.324C7.74683 10.3969 7.80359 10.4585 7.87657 10.4585H8.7956V10.5426Z" fill="#D9D9D9"></path><path d="M10.1282 0C4.54377 0 0 4.71057 0 10.5C0 16.2894 4.54377 21 10.1282 21C15.7126 21 20.2564 16.2894 20.2564 10.5C20.2564 4.71057 15.7126 0 10.1282 0ZM18.9563 10.5C18.9563 15.5468 14.9963 19.6521 10.1282 19.6521C5.26007 19.6521 1.29745 15.5468 1.29745 10.5C1.29745 5.45316 5.25737 1.34508 10.1255 1.34508C14.9963 1.34788 18.9563 5.45316 18.9563 10.5Z" fill="#D9D9D9"></path></svg>