<svg
                                  xmlns="http://www.w3.org/2000/svg"
                                  width="21"
                                  height="21"
                                  viewBox="0 0 21 21"
                                  fill="none"
                                >
                                  <path
                                    d="M14.2479 7.6049C14.2479 7.95238 13.9776 8.2326 13.6424 8.2326C13.3072 8.2326 13.0369 7.95238 13.0369 7.6049C13.0369 7.25742 13.3099 6.9772 13.6424 6.9772C13.9776 6.9772 14.2479 7.25742 14.2479 7.6049ZM13.4938 10.424C13.4938 11.8811 12.3504 13.0665 10.9448 13.0665C9.53923 13.0665 8.39586 11.8811 8.39586 10.424C8.39586 8.96679 9.53923 7.78144 10.9448 7.78144C12.3504 7.78144 13.4938 8.96679 13.4938 10.424ZM12.5774 10.424C12.5774 9.49081 11.8449 8.7314 10.9448 8.7314C10.0447 8.7314 9.31218 9.49081 9.31218 10.424C9.31218 11.3571 10.0447 12.1165 10.9448 12.1165C11.8449 12.1165 12.5774 11.3571 12.5774 10.424ZM16.1022 8.30266C16.1022 6.52323 14.7101 5.08008 12.9937 5.08008H8.75266C7.03624 5.08008 5.64419 6.52323 5.64419 8.30266V12.6994C5.64419 14.4788 7.03624 15.9219 8.75266 15.9219H12.9937C14.7101 15.9219 16.1022 14.4788 16.1022 12.6994V8.30266ZM15.0831 12.6517C15.0831 13.8735 14.1263 14.8655 12.9477 14.8655H8.7986C7.62009 14.8655 6.66322 13.8735 6.66322 12.6517V8.35029C6.66322 7.12852 7.62009 6.13652 8.7986 6.13652H12.9477C14.1263 6.13652 15.0831 7.12852 15.0831 8.35029V12.6517Z"
                                    fill="#D9D9D9"
                                  />
                                  <path
                                    d="M10.8718 0C5.28736 0 0.743591 4.71057 0.743591 10.5C0.743591 16.2894 5.28736 21 10.8718 21C16.4562 21 21 16.2894 21 10.5C21 4.71057 16.4562 0 10.8718 0ZM10.8718 19.6549C6.00366 19.6549 2.04374 15.5496 2.04374 10.5028C2.04374 5.45596 6.00366 1.35068 10.8718 1.35068C15.7399 1.35068 19.7025 5.45596 19.7025 10.5028C19.7025 15.5496 15.7426 19.6549 10.8718 19.6549Z"
                                    fill="#D9D9D9"
                                  />
                                </svg>