<svg xmlns="http://www.w3.org/2000/svg" width="22" height="21" viewBox="0 0 22 21" fill="none"><path d="M6.48581 7.80733H8.42388V14.2581H6.48581V7.80733ZM7.45349 4.60156C8.07248 4.60156 8.57525 5.12278 8.57525 5.7645C8.57525 6.40621 8.07248 6.92742 7.45349 6.92742C6.8318 6.92742 6.33174 6.40621 6.33174 5.7645C6.33174 5.12278 6.8318 4.60156 7.45349 4.60156ZM9.63753 14.2609H11.5702V11.0691C11.5702 10.2285 11.7243 9.41301 12.7298 9.41301C13.7218 9.41301 13.7353 10.3742 13.7353 11.1252V14.2609H15.668V10.7217C15.668 8.98427 15.3058 7.6476 13.3488 7.6476C12.4054 7.6476 11.7756 8.18283 11.5161 8.69004H11.4918V7.80733H9.63483V14.2609H9.63753Z" fill="#D9D9D9"></path><path d="M11 0C5.41557 0 0.871796 4.71057 0.871796 10.5C0.871796 16.2894 5.41557 21 11 21C16.5844 21 21.1282 16.2894 21.1282 10.5C21.1282 4.71057 16.5844 0 11 0ZM11 19.6549C6.13187 19.6549 2.17195 15.5496 2.17195 10.5C2.17195 5.45316 6.13187 1.34788 11 1.34788C15.8681 1.34788 19.8281 5.45316 19.8281 10.5C19.8281 15.5496 15.8681 19.6549 11 19.6549Z" fill="#D9D9D9"></path></svg>