<svg width="70" height="70" viewBox="0 0 70 70" fill="none" xmlns="http://www.w3.org/2000/svg">
<path d="M-3.0598e-06 35C-4.74702e-06 15.7004 15.7004 4.74702e-06 35 3.0598e-06C36.61 2.91905e-06 37.9167 1.30375 37.9167 2.91667C37.9167 4.52958 36.61 5.83333 35 5.83333C18.9175 5.83333 5.83332 18.9175 5.83333 35C5.83333 51.0825 18.9175 64.1667 35 64.1667C36.61 64.1667 37.9167 65.4704 37.9167 67.0833C37.9167 68.6963 36.61 70 35 70C15.7004 70 -1.37257e-06 54.2996 -3.0598e-06 35ZM62.8192 31.745C62.9242 31.85 63.0058 31.9725 63.0992 32.0833L43.2177 32.0833L23.3362 32.0833C21.7262 32.0833 20.4196 33.3871 20.4196 35C20.4196 36.6129 21.7262 37.9167 23.3362 37.9167L63.0962 37.9167C63 38.0333 62.9183 38.1558 62.8104 38.2638L47.8362 53.3633C46.7017 54.5067 46.7104 56.3529 47.8537 57.4875C48.9971 58.625 50.8462 58.6163 51.9779 57.47L66.9462 42.3792C68.915 40.4046 70 37.7854 70 35C70 32.2146 68.915 29.5925 66.9521 27.6296L51.9779 12.53C51.4092 11.9554 50.6567 11.6667 49.9071 11.6667C49.1662 11.6667 48.4225 11.9496 47.8537 12.5125C46.7104 13.6471 46.7017 15.4933 47.8362 16.6367L62.8192 31.745Z" fill="white"/>
</svg>
