<svg width="70" height="70" viewBox="0 0 70 70" fill="none" xmlns="http://www.w3.org/2000/svg">
<path d="M70 35C70 54.2996 54.2996 70 35 70C33.39 70 32.0833 68.6963 32.0833 67.0833C32.0833 65.4704 33.39 64.1667 35 64.1667C51.0825 64.1667 64.1667 51.0825 64.1667 35C64.1667 18.9175 51.0825 5.83333 35 5.83333C33.39 5.83333 32.0833 4.52958 32.0833 2.91667C32.0833 1.30375 33.39 0 35 0C54.2996 0 70 15.7004 70 35ZM7.18083 38.255C7.07583 38.15 6.99417 38.0275 6.90083 37.9167H26.7823H46.6637C48.2737 37.9167 49.5804 36.6129 49.5804 35C49.5804 33.3871 48.2737 32.0833 46.6637 32.0833H6.90375C7 31.9667 7.08167 31.8442 7.18958 31.7362L22.1637 16.6367C23.2983 15.4933 23.2896 13.6471 22.1462 12.5125C21.0029 11.375 19.1538 11.3838 18.0221 12.53L3.05375 27.6208C1.085 29.5954 0 32.2146 0 35C0 37.7854 1.085 40.4075 3.04792 42.3704L18.0221 57.47C18.5908 58.0446 19.3433 58.3333 20.0929 58.3333C20.8337 58.3333 21.5775 58.0504 22.1462 57.4875C23.2896 56.3529 23.2983 54.5067 22.1637 53.3633L7.18083 38.255Z" fill="white"/>
</svg>
