<svg
                  xmlns="http://www.w3.org/2000/svg"
                  width="19"
                  height="21"
                  viewBox="0 0 19 21"
                  fill="none"
                >
                  <path
                    d="M16.5658 6.96705L7.76103 0.845432C7.07332 0.367961 6.2596 0.0803719 5.41006 0.0145436C4.56052 -0.0512848 3.70835 0.107219 2.94801 0.472484C2.18766 0.83775 1.54884 1.39551 1.10236 2.08394C0.65587 2.77237 0.41916 3.56458 0.418463 4.37276V16.6221C0.417137 17.4311 0.652609 18.2245 1.09867 18.9141C1.54473 19.6037 2.18388 20.1625 2.94497 20.5281C3.70606 20.8937 4.55923 21.0519 5.40952 20.985C6.2598 20.9182 7.07384 20.6289 7.76103 20.1494L16.5658 14.0278C17.1501 13.6213 17.6251 13.0901 17.9526 12.4771C18.28 11.8642 18.4507 11.1867 18.4507 10.4996C18.4507 9.81253 18.28 9.13508 17.9526 8.52213C17.6251 7.90918 17.1501 7.37794 16.5658 6.97143V6.96705Z"
                    fill="white"
                  />
                </svg>