<svg
                                  xmlns="http://www.w3.org/2000/svg"
                                  width="21"
                                  height="21"
                                  viewBox="0 0 21 21"
                                  fill="none"
                                >
                                  <path
                                    d="M15.8474 9.11602C15.8474 7.76254 14.7878 6.66406 13.4822 6.66406H7.39232C6.08676 6.66406 5.02718 7.76254 5.02718 9.11602V11.8846C5.02718 13.2381 6.08676 14.3366 7.39232 14.3366H13.4822C14.7878 14.3366 15.8474 13.2381 15.8474 11.8846V9.11602ZM12.4983 10.5732L9.77638 11.9659C9.67096 12.0247 9.29794 11.9463 9.29794 11.8202V8.9647C9.29794 8.8386 9.67366 8.75734 9.77908 8.82179L12.3821 10.2874C12.4902 10.349 12.6091 10.5115 12.4983 10.5732Z"
                                    fill="#D9D9D9"
                                  />
                                  <path
                                    d="M10.4359 0C4.85147 0 0.307693 4.71057 0.307693 10.5C0.307693 16.2894 4.85147 21 10.4359 21C16.0203 21 20.5641 16.2894 20.5641 10.5C20.5641 4.71057 16.0203 0 10.4359 0ZM10.4359 19.6549C5.56776 19.6549 1.60514 15.5496 1.60514 10.5028C1.60514 5.45596 5.56506 1.35068 10.4359 1.35068C15.3067 1.35068 19.264 5.45596 19.264 10.5028C19.2667 15.5468 15.304 19.6549 10.4359 19.6549Z"
                                    fill="#D9D9D9"
                                  />
                                </svg>